<svg width="20" height="20" viewBox="0 0 20 20" fill="none" xmlns="http://www.w3.org/2000/svg">
<g id="check2-circle">
<g id="Union">
<path d="M3.125 10C3.125 6.20304 6.20304 3.125 10 3.125C11.2533 3.125 12.4265 3.45978 13.437 4.04437C13.7358 4.21721 14.1182 4.11511 14.291 3.81632C14.4638 3.51753 14.3617 3.1352 14.063 2.96236C12.8672 2.27068 11.4789 1.875 10 1.875C5.51269 1.875 1.875 5.51269 1.875 10C1.875 14.4873 5.51269 18.125 10 18.125C14.4873 18.125 18.125 14.4873 18.125 10C18.125 9.65482 17.8452 9.375 17.5 9.375C17.1548 9.375 16.875 9.65482 16.875 10C16.875 13.797 13.797 16.875 10 16.875C6.20304 16.875 3.125 13.797 3.125 10Z" fill="#54595E"/>
<path d="M19.1919 4.19194C19.436 3.94786 19.436 3.55214 19.1919 3.30806C18.9479 3.06398 18.5521 3.06398 18.3081 3.30806L10 11.6161L6.69194 8.30806C6.44786 8.06398 6.05214 8.06398 5.80806 8.30806C5.56398 8.55214 5.56398 8.94786 5.80806 9.19194L9.55806 12.9419C9.80214 13.186 10.1979 13.186 10.4419 12.9419L19.1919 4.19194Z" fill="#54595E"/>
</g>
</g>
</svg>
